<svg width="50" height="50" viewBox="0 0 50 50" fill="none" xmlns="http://www.w3.org/2000/svg">
<path d="M25.0001 11.4596L23.8742 12.5432C24.1688 12.8492 24.5753 13.0221 25.0001 13.0221C25.4249 13.0221 25.8313 12.8492 26.1259 12.5432L25.0001 11.4596ZM19.6377 38.1706C16.4801 35.6815 13.0273 33.2506 10.2882 30.1662C7.60262 27.1421 5.72925 23.6135 5.72925 19.0356H2.60425C2.60425 24.5887 4.91779 28.8252 7.95158 32.2412C10.9318 35.5971 14.7309 38.2817 17.703 40.6248L19.6377 38.1706ZM5.72925 19.0356C5.72925 14.5546 8.26127 10.7969 11.7175 9.21706C15.0752 7.68225 19.5869 8.08871 23.8742 12.5432L26.1259 10.3761C21.0386 5.09066 15.1336 4.21956 10.4183 6.37491C5.80156 8.48525 2.60425 13.3855 2.60425 19.0356H5.72925ZM17.703 40.6248C18.7702 41.466 19.9158 42.3631 21.0767 43.0415C22.2374 43.7196 23.5617 44.2708 25.0001 44.2708V41.1458C24.3551 41.1458 23.5961 40.8944 22.6534 40.3433C21.7111 39.7927 20.7336 39.0346 19.6377 38.1706L17.703 40.6248ZM32.2972 40.6248C35.2692 38.2817 39.0684 35.5971 42.0486 32.2412C45.0824 28.8252 47.3959 24.5887 47.3959 19.0356H44.2709C44.2709 23.6135 42.3976 27.1421 39.712 30.1662C36.9728 33.2506 33.5201 35.6815 30.3626 38.1706L32.2972 40.6248ZM47.3959 19.0356C47.3959 13.3855 44.1986 8.48525 39.5817 6.37491C34.8665 4.21956 28.9615 5.09066 23.8742 10.3761L26.1259 12.5432C30.4132 8.08871 34.9249 7.68225 38.2826 9.21706C41.7388 10.7969 44.2709 14.5546 44.2709 19.0356H47.3959ZM30.3626 38.1706C29.2665 39.0346 28.289 39.7927 27.3467 40.3433C26.404 40.8944 25.6451 41.1458 25.0001 41.1458V44.2708C26.4384 44.2708 27.7628 43.7196 28.9234 43.0415C30.0845 42.3631 31.2299 41.466 32.2972 40.6248L30.3626 38.1706Z" fill="black"/>
</svg>
